<mxfile host="app.diagrams.net" modified="2023-11-30T02:27:05.189Z" agent="Mozilla/5.0 (Windows NT 10.0; Win64; x64) AppleWebKit/537.36 (KHTML, like Gecko) Chrome/119.0.0.0 Safari/537.36" etag="KqJ_K8TuWt4wMrujsYXc" version="22.1.5" type="github">
  <diagram id="C5RBs43oDa-KdzZeNtuy" name="Page-1">
    <mxGraphModel dx="600" dy="310" grid="1" gridSize="10" guides="1" tooltips="1" connect="1" arrows="1" fold="1" page="1" pageScale="1" pageWidth="827" pageHeight="1169" math="0" shadow="0">
      <root>
        <mxCell id="WIyWlLk6GJQsqaUBKTNV-0" />
        <mxCell id="WIyWlLk6GJQsqaUBKTNV-1" parent="WIyWlLk6GJQsqaUBKTNV-0" />
        <mxCell id="WIyWlLk6GJQsqaUBKTNV-3" value="Item Add" style="rounded=1;whiteSpace=wrap;html=1;fontSize=12;glass=0;strokeWidth=1;shadow=0;" parent="WIyWlLk6GJQsqaUBKTNV-1" vertex="1">
          <mxGeometry x="35" y="140" width="120" height="30" as="geometry" />
        </mxCell>
        <mxCell id="alrUwy4Ty7rrQ98ZfnOm-4" value="" style="endArrow=classic;startArrow=classic;html=1;rounded=0;exitX=0;exitY=0.5;exitDx=0;exitDy=0;" edge="1" parent="WIyWlLk6GJQsqaUBKTNV-1" source="alrUwy4Ty7rrQ98ZfnOm-1">
          <mxGeometry width="50" height="50" relative="1" as="geometry">
            <mxPoint x="280" y="90" as="sourcePoint" />
            <mxPoint x="90" y="70" as="targetPoint" />
          </mxGeometry>
        </mxCell>
        <mxCell id="alrUwy4Ty7rrQ98ZfnOm-8" value="" style="endArrow=classic;startArrow=classic;html=1;rounded=0;exitX=0.5;exitY=0;exitDx=0;exitDy=0;" edge="1" parent="WIyWlLk6GJQsqaUBKTNV-1" source="WIyWlLk6GJQsqaUBKTNV-3" target="alrUwy4Ty7rrQ98ZfnOm-1">
          <mxGeometry width="50" height="50" relative="1" as="geometry">
            <mxPoint x="160" y="100" as="sourcePoint" />
            <mxPoint x="90" y="70" as="targetPoint" />
          </mxGeometry>
        </mxCell>
        <mxCell id="alrUwy4Ty7rrQ98ZfnOm-1" value="Item add using category,sub-category and others specification" style="ellipse;whiteSpace=wrap;html=1;" vertex="1" parent="WIyWlLk6GJQsqaUBKTNV-1">
          <mxGeometry x="20" width="150" height="100" as="geometry" />
        </mxCell>
        <mxCell id="alrUwy4Ty7rrQ98ZfnOm-10" value="Project" style="rounded=1;whiteSpace=wrap;html=1;" vertex="1" parent="WIyWlLk6GJQsqaUBKTNV-1">
          <mxGeometry x="296" y="20" width="120" height="30" as="geometry" />
        </mxCell>
        <mxCell id="alrUwy4Ty7rrQ98ZfnOm-27" value="" style="edgeStyle=orthogonalEdgeStyle;rounded=0;orthogonalLoop=1;jettySize=auto;html=1;" edge="1" parent="WIyWlLk6GJQsqaUBKTNV-1" source="alrUwy4Ty7rrQ98ZfnOm-11" target="alrUwy4Ty7rrQ98ZfnOm-26">
          <mxGeometry relative="1" as="geometry" />
        </mxCell>
        <mxCell id="alrUwy4Ty7rrQ98ZfnOm-11" value="SR" style="rounded=1;whiteSpace=wrap;html=1;" vertex="1" parent="WIyWlLk6GJQsqaUBKTNV-1">
          <mxGeometry x="296" y="80" width="120" height="30" as="geometry" />
        </mxCell>
        <mxCell id="alrUwy4Ty7rrQ98ZfnOm-23" value="" style="edgeStyle=orthogonalEdgeStyle;rounded=0;orthogonalLoop=1;jettySize=auto;html=1;" edge="1" parent="WIyWlLk6GJQsqaUBKTNV-1" source="alrUwy4Ty7rrQ98ZfnOm-12" target="alrUwy4Ty7rrQ98ZfnOm-15">
          <mxGeometry relative="1" as="geometry" />
        </mxCell>
        <mxCell id="alrUwy4Ty7rrQ98ZfnOm-12" value="PR" style="rounded=1;whiteSpace=wrap;html=1;" vertex="1" parent="WIyWlLk6GJQsqaUBKTNV-1">
          <mxGeometry x="296" y="250" width="120" height="30" as="geometry" />
        </mxCell>
        <mxCell id="alrUwy4Ty7rrQ98ZfnOm-20" value="" style="edgeStyle=orthogonalEdgeStyle;rounded=0;orthogonalLoop=1;jettySize=auto;html=1;" edge="1" parent="WIyWlLk6GJQsqaUBKTNV-1" source="alrUwy4Ty7rrQ98ZfnOm-14" target="alrUwy4Ty7rrQ98ZfnOm-15">
          <mxGeometry relative="1" as="geometry" />
        </mxCell>
        <mxCell id="alrUwy4Ty7rrQ98ZfnOm-14" value="PO" style="rounded=1;whiteSpace=wrap;html=1;" vertex="1" parent="WIyWlLk6GJQsqaUBKTNV-1">
          <mxGeometry x="296" y="305" width="120" height="35" as="geometry" />
        </mxCell>
        <mxCell id="alrUwy4Ty7rrQ98ZfnOm-24" value="" style="edgeStyle=orthogonalEdgeStyle;rounded=0;orthogonalLoop=1;jettySize=auto;html=1;" edge="1" parent="WIyWlLk6GJQsqaUBKTNV-1" source="alrUwy4Ty7rrQ98ZfnOm-15" target="alrUwy4Ty7rrQ98ZfnOm-16">
          <mxGeometry relative="1" as="geometry" />
        </mxCell>
        <mxCell id="alrUwy4Ty7rrQ98ZfnOm-15" value="GRN" style="rounded=1;whiteSpace=wrap;html=1;" vertex="1" parent="WIyWlLk6GJQsqaUBKTNV-1">
          <mxGeometry x="296" y="375" width="120" height="25" as="geometry" />
        </mxCell>
        <mxCell id="alrUwy4Ty7rrQ98ZfnOm-16" value="MRIR" style="rounded=1;whiteSpace=wrap;html=1;" vertex="1" parent="WIyWlLk6GJQsqaUBKTNV-1">
          <mxGeometry x="296" y="430" width="120" height="25" as="geometry" />
        </mxCell>
        <mxCell id="alrUwy4Ty7rrQ98ZfnOm-18" style="edgeStyle=orthogonalEdgeStyle;rounded=0;orthogonalLoop=1;jettySize=auto;html=1;exitX=0.5;exitY=1;exitDx=0;exitDy=0;entryX=0.533;entryY=0.044;entryDx=0;entryDy=0;entryPerimeter=0;" edge="1" parent="WIyWlLk6GJQsqaUBKTNV-1" source="alrUwy4Ty7rrQ98ZfnOm-10" target="alrUwy4Ty7rrQ98ZfnOm-11">
          <mxGeometry relative="1" as="geometry" />
        </mxCell>
        <mxCell id="alrUwy4Ty7rrQ98ZfnOm-25" style="edgeStyle=orthogonalEdgeStyle;rounded=0;orthogonalLoop=1;jettySize=auto;html=1;entryX=-0.004;entryY=0.638;entryDx=0;entryDy=0;entryPerimeter=0;" edge="1" parent="WIyWlLk6GJQsqaUBKTNV-1" source="WIyWlLk6GJQsqaUBKTNV-3" target="alrUwy4Ty7rrQ98ZfnOm-11">
          <mxGeometry relative="1" as="geometry" />
        </mxCell>
        <mxCell id="alrUwy4Ty7rrQ98ZfnOm-28" value="" style="edgeStyle=orthogonalEdgeStyle;rounded=0;orthogonalLoop=1;jettySize=auto;html=1;" edge="1" parent="WIyWlLk6GJQsqaUBKTNV-1" source="alrUwy4Ty7rrQ98ZfnOm-26">
          <mxGeometry relative="1" as="geometry">
            <mxPoint x="356" y="250" as="targetPoint" />
          </mxGeometry>
        </mxCell>
        <mxCell id="alrUwy4Ty7rrQ98ZfnOm-30" style="edgeStyle=orthogonalEdgeStyle;rounded=0;orthogonalLoop=1;jettySize=auto;html=1;" edge="1" parent="WIyWlLk6GJQsqaUBKTNV-1">
          <mxGeometry relative="1" as="geometry">
            <mxPoint x="450" y="90" as="targetPoint" />
            <mxPoint x="400" y="165" as="sourcePoint" />
          </mxGeometry>
        </mxCell>
        <mxCell id="alrUwy4Ty7rrQ98ZfnOm-26" value="Approve SR" style="strokeWidth=2;html=1;shape=mxgraph.flowchart.decision;whiteSpace=wrap;" vertex="1" parent="WIyWlLk6GJQsqaUBKTNV-1">
          <mxGeometry x="306" y="140" width="100" height="50" as="geometry" />
        </mxCell>
        <mxCell id="alrUwy4Ty7rrQ98ZfnOm-29" value="Yes" style="text;html=1;strokeColor=none;fillColor=none;align=center;verticalAlign=middle;whiteSpace=wrap;rounded=0;" vertex="1" parent="WIyWlLk6GJQsqaUBKTNV-1">
          <mxGeometry x="320" y="200" width="36" height="20" as="geometry" />
        </mxCell>
      </root>
    </mxGraphModel>
  </diagram>
</mxfile>
